<svg viewBox="0 0 500 500" xmlns="http://www.w3.org/2000/svg">
  <defs>
    <linearGradient id="grad1" x1="0%" y1="0%" x2="100%" y2="100%">
      <stop offset="0%" style="stop-color:#667eea"/>
      <stop offset="100%" style="stop-color:#764ba2"/>
    </linearGradient>
  </defs>
  
  <rect width="500" height="500" fill="#f5f7fa"/>
  
  <!-- Grid circles -->
  <circle cx="250" cy="250" r="50" fill="none" stroke="#e0e0e0" stroke-width="1"/>
  <circle cx="250" cy="250" r="100" fill="none" stroke="#e0e0e0" stroke-width="1"/>
  <circle cx="250" cy="250" r="150" fill="none" stroke="#e0e0e0" stroke-width="1"/>
  <circle cx="250" cy="250" r="200" fill="none" stroke="#e0e0e0" stroke-width="2"/>
  
  <!-- Axes -->
  <line x1="250" y1="50" x2="250" y2="450" stroke="#d0d0d0" stroke-width="1"/>
  <line x1="450" y1="250" x2="50" y2="250" stroke="#d0d0d0" stroke-width="1"/>
  <line x1="339" y1="76" x2="161" y2="424" stroke="#d0d0d0" stroke-width="1"/>
  <line x1="424" y1="339" x2="76" y2="161" stroke="#d0d0d0" stroke-width="1"/>
  <line x1="161" y1="76" x2="339" y2="424" stroke="#d0d0d0" stroke-width="1"/>
  
  <!-- Data polygon 90%, 85%, 80%, 80%, 75% -->
  <polygon points="250,50 405,136 357,379 143,379 95,136" fill="url(#grad1)" stroke="#667eea" stroke-width="2" opacity="0.8"/>
  
  <!-- Points -->
  <circle cx="250" cy="50" r="5" fill="#667eea"/>
  <circle cx="405" cy="136" r="5" fill="#667eea"/>
  <circle cx="357" cy="379" r="5" fill="#667eea"/>
  <circle cx="143" cy="379" r="5" fill="#667eea"/>
  <circle cx="95" cy="136" r="5" fill="#667eea"/>
  
  <!-- Labels -->
  <text x="250" y="30" font-size="12" font-weight="bold" text-anchor="middle" fill="#1a1a1a">Data Eng</text>
  <text x="250" y="42" font-size="10" text-anchor="middle" fill="#667eea">90%</text>
  
  <text x="430" y="140" font-size="12" font-weight="bold" fill="#1a1a1a">BI</text>
  <text x="430" y="152" font-size="10" fill="#667eea">85%</text>
  
  <text x="380" y="400" font-size="12" font-weight="bold" fill="#1a1a1a">Cloud</text>
  <text x="380" y="412" font-size="10" fill="#667eea">80%</text>
  
  <text x="100" y="400" font-size="12" font-weight="bold" fill="#1a1a1a">Data Science</text>
  <text x="100" y="412" font-size="10" fill="#667eea">80%</text>
  
  <text x="50" y="140" font-size="12" font-weight="bold" fill="#1a1a1a">Dev</text>
  <text x="50" y="152" font-size="10" fill="#667eea">75%</text>
  
  <!-- Center -->
  <text x="250" y="260" font-size="14" font-weight="bold" text-anchor="middle" fill="#1a1a1a">SKILLS</text>
</svg>
